/* XPM */
static char * jext_xpm[] = {
"16 16 60 1",
" 	c None",
".	c #FFFFFF",
"+	c #F3F3FF",
"@	c #D8D8FF",
"#	c #CACAFF",
"$	c #ADADFF",
"%	c #4A4A8E",
"&	c #9898EA",
"*	c #4E4E80",
"=	c #3C3C80",
"-	c #7373AB",
";	c #DADAFF",
">	c #5D5DA4",
",	c #000002",
"'	c #9292AD",
")	c #808080",
"!	c #7171A4",
"~	c #A1A1FF",
"{	c #292961",
"]	c #000000",
"^	c #3C3C3C",
"/	c #787878",
"(	c #9898BB",
"_	c #C2C2FF",
":	c #424280",
"<	c #EFEFEF",
"[	c #D6D6F7",
"}	c #C6C6FF",
"|	c #E9E9F3",
"1	c #9C9CBB",
"2	c #A9A9BB",
"3	c #D6D6FF",
"4	c #E7E7FB",
"5	c #27275D",
"6	c #020202",
"7	c #656580",
"8	c #6B6B80",
"9	c #BFBFE0",
"0	c #3A3A52",
"a	c #E3E3F7",
"b	c #E7E7FF",
"c	c #AFAFFD",
"d	c #E6E6FF",
"e	c #F5F5FF",
"f	c #B7B7E0",
"g	c #19193C",
"h	c #A1A1B7",
"i	c #CECEF5",
"j	c #5F5FB1",
"k	c #272761",
"l	c #36367C",
"m	c #12122B",
"n	c #0E0E19",
"o	c #9696B1",
"p	c #DCDCED",
"q	c #A5A5BE",
"r	c #86868C",
"s	c #84848A",
"t	c #B5B5D0",
"u	c #BFBFBF",
"................",
".....+@###$%....",
".....&*=-;>,....",
".....'))!~{]....",
".^//////(_:]/)..",
"./<<<<<<[}:]<)..",
"./<///<|[}:]<)..",
"./<<<<<<[}:]<)..",
"./<|////1}:]<)..",
"./</////23:]<)..",
"./<<<<<<4+56<)..",
"./</7//8+9]0<)..",
"./<abcdefg]h<)..",
"./<ijklm]no/<)..",
"./<pqr/st|<<<)..",
".))))))))))))u.."};
